%TF.GenerationSoftware,KiCad,Pcbnew,10.0.0*%
%TF.CreationDate,2026-03-31T21:38:48+05:30*%
%TF.ProjectId,custommacropad,63757374-6f6d-46d6-9163-726f7061642e,rev?*%
%TF.SameCoordinates,Original*%
%TF.FileFunction,Soldermask,Bot*%
%TF.FilePolarity,Negative*%
%FSLAX46Y46*%
G04 Gerber Fmt 4.6, Leading zero omitted, Abs format (unit mm)*
G04 Created by KiCad (PCBNEW 10.0.0) date 2026-03-31 21:38:48*
%MOMM*%
%LPD*%
G01*
G04 APERTURE LIST*
%ADD10R,2.000000X2.000000*%
%ADD11C,2.000000*%
%ADD12R,3.200000X2.000000*%
%ADD13C,1.700000*%
%ADD14C,4.000000*%
%ADD15C,2.200000*%
%ADD16R,3.500000X1.700000*%
%ADD17O,3.600000X1.700000*%
%ADD18O,3.700000X1.700000*%
G04 APERTURE END LIST*
D10*
%TO.C,SW5*%
X134375000Y-82307470D03*
D11*
X134375000Y-87307470D03*
X134375000Y-84807470D03*
D12*
X141875000Y-79207470D03*
X141875000Y-90407470D03*
D11*
X148875000Y-87307470D03*
X148875000Y-82307470D03*
%TD*%
D13*
%TO.C,SW1*%
X115400000Y-64040000D03*
D14*
X120480000Y-64040000D03*
D13*
X125560000Y-64040000D03*
D15*
X123020000Y-58960000D03*
X116670000Y-61500000D03*
%TD*%
D13*
%TO.C,SW3*%
X96370000Y-64040000D03*
D14*
X101450000Y-64040000D03*
D13*
X106530000Y-64040000D03*
D15*
X103990000Y-58960000D03*
X97640000Y-61500000D03*
%TD*%
D16*
%TO.C,U1*%
X133000000Y-58500000D03*
D17*
X133000000Y-61040000D03*
X133000000Y-63580000D03*
X133000000Y-66120000D03*
X133000000Y-68660000D03*
X133000000Y-71200000D03*
X133000000Y-73740000D03*
X150250000Y-73740000D03*
X150250000Y-71200000D03*
X150250000Y-68660000D03*
D18*
X150250000Y-66120000D03*
X150250000Y-63580000D03*
X150250000Y-61040000D03*
X150250000Y-58500000D03*
%TD*%
D13*
%TO.C,SW4*%
X96380000Y-83080000D03*
D14*
X101460000Y-83080000D03*
D13*
X106540000Y-83080000D03*
D15*
X104000000Y-78000000D03*
X97650000Y-80540000D03*
%TD*%
D13*
%TO.C,SW2*%
X115400000Y-83080000D03*
D14*
X120480000Y-83080000D03*
D13*
X125560000Y-83080000D03*
D15*
X123020000Y-78000000D03*
X116670000Y-80540000D03*
%TD*%
M02*
