%TF.GenerationSoftware,KiCad,Pcbnew,10.0.0*%
%TF.CreationDate,2026-03-31T21:38:48+05:30*%
%TF.ProjectId,custommacropad,63757374-6f6d-46d6-9163-726f7061642e,rev?*%
%TF.SameCoordinates,Original*%
%TF.FileFunction,Legend,Top*%
%TF.FilePolarity,Positive*%
%FSLAX46Y46*%
G04 Gerber Fmt 4.6, Leading zero omitted, Abs format (unit mm)*
G04 Created by KiCad (PCBNEW 10.0.0) date 2026-03-31 21:38:48*
%MOMM*%
%LPD*%
G01*
G04 APERTURE LIST*
%ADD10C,0.150000*%
%ADD11C,0.101600*%
%ADD12C,0.120000*%
%ADD13C,0.127000*%
%ADD14C,0.254000*%
%ADD15C,0.025400*%
G04 APERTURE END LIST*
D10*
X135841667Y-78014670D02*
X135984524Y-78062289D01*
X135984524Y-78062289D02*
X136222619Y-78062289D01*
X136222619Y-78062289D02*
X136317857Y-78014670D01*
X136317857Y-78014670D02*
X136365476Y-77967050D01*
X136365476Y-77967050D02*
X136413095Y-77871812D01*
X136413095Y-77871812D02*
X136413095Y-77776574D01*
X136413095Y-77776574D02*
X136365476Y-77681336D01*
X136365476Y-77681336D02*
X136317857Y-77633717D01*
X136317857Y-77633717D02*
X136222619Y-77586098D01*
X136222619Y-77586098D02*
X136032143Y-77538479D01*
X136032143Y-77538479D02*
X135936905Y-77490860D01*
X135936905Y-77490860D02*
X135889286Y-77443241D01*
X135889286Y-77443241D02*
X135841667Y-77348003D01*
X135841667Y-77348003D02*
X135841667Y-77252765D01*
X135841667Y-77252765D02*
X135889286Y-77157527D01*
X135889286Y-77157527D02*
X135936905Y-77109908D01*
X135936905Y-77109908D02*
X136032143Y-77062289D01*
X136032143Y-77062289D02*
X136270238Y-77062289D01*
X136270238Y-77062289D02*
X136413095Y-77109908D01*
X136746429Y-77062289D02*
X136984524Y-78062289D01*
X136984524Y-78062289D02*
X137175000Y-77348003D01*
X137175000Y-77348003D02*
X137365476Y-78062289D01*
X137365476Y-78062289D02*
X137603572Y-77062289D01*
X138460714Y-77062289D02*
X137984524Y-77062289D01*
X137984524Y-77062289D02*
X137936905Y-77538479D01*
X137936905Y-77538479D02*
X137984524Y-77490860D01*
X137984524Y-77490860D02*
X138079762Y-77443241D01*
X138079762Y-77443241D02*
X138317857Y-77443241D01*
X138317857Y-77443241D02*
X138413095Y-77490860D01*
X138413095Y-77490860D02*
X138460714Y-77538479D01*
X138460714Y-77538479D02*
X138508333Y-77633717D01*
X138508333Y-77633717D02*
X138508333Y-77871812D01*
X138508333Y-77871812D02*
X138460714Y-77967050D01*
X138460714Y-77967050D02*
X138413095Y-78014670D01*
X138413095Y-78014670D02*
X138317857Y-78062289D01*
X138317857Y-78062289D02*
X138079762Y-78062289D01*
X138079762Y-78062289D02*
X137984524Y-78014670D01*
X137984524Y-78014670D02*
X137936905Y-77967050D01*
X119146667Y-56573200D02*
X119289524Y-56620819D01*
X119289524Y-56620819D02*
X119527619Y-56620819D01*
X119527619Y-56620819D02*
X119622857Y-56573200D01*
X119622857Y-56573200D02*
X119670476Y-56525580D01*
X119670476Y-56525580D02*
X119718095Y-56430342D01*
X119718095Y-56430342D02*
X119718095Y-56335104D01*
X119718095Y-56335104D02*
X119670476Y-56239866D01*
X119670476Y-56239866D02*
X119622857Y-56192247D01*
X119622857Y-56192247D02*
X119527619Y-56144628D01*
X119527619Y-56144628D02*
X119337143Y-56097009D01*
X119337143Y-56097009D02*
X119241905Y-56049390D01*
X119241905Y-56049390D02*
X119194286Y-56001771D01*
X119194286Y-56001771D02*
X119146667Y-55906533D01*
X119146667Y-55906533D02*
X119146667Y-55811295D01*
X119146667Y-55811295D02*
X119194286Y-55716057D01*
X119194286Y-55716057D02*
X119241905Y-55668438D01*
X119241905Y-55668438D02*
X119337143Y-55620819D01*
X119337143Y-55620819D02*
X119575238Y-55620819D01*
X119575238Y-55620819D02*
X119718095Y-55668438D01*
X120051429Y-55620819D02*
X120289524Y-56620819D01*
X120289524Y-56620819D02*
X120480000Y-55906533D01*
X120480000Y-55906533D02*
X120670476Y-56620819D01*
X120670476Y-56620819D02*
X120908572Y-55620819D01*
X121813333Y-56620819D02*
X121241905Y-56620819D01*
X121527619Y-56620819D02*
X121527619Y-55620819D01*
X121527619Y-55620819D02*
X121432381Y-55763676D01*
X121432381Y-55763676D02*
X121337143Y-55858914D01*
X121337143Y-55858914D02*
X121241905Y-55906533D01*
X100116667Y-56573200D02*
X100259524Y-56620819D01*
X100259524Y-56620819D02*
X100497619Y-56620819D01*
X100497619Y-56620819D02*
X100592857Y-56573200D01*
X100592857Y-56573200D02*
X100640476Y-56525580D01*
X100640476Y-56525580D02*
X100688095Y-56430342D01*
X100688095Y-56430342D02*
X100688095Y-56335104D01*
X100688095Y-56335104D02*
X100640476Y-56239866D01*
X100640476Y-56239866D02*
X100592857Y-56192247D01*
X100592857Y-56192247D02*
X100497619Y-56144628D01*
X100497619Y-56144628D02*
X100307143Y-56097009D01*
X100307143Y-56097009D02*
X100211905Y-56049390D01*
X100211905Y-56049390D02*
X100164286Y-56001771D01*
X100164286Y-56001771D02*
X100116667Y-55906533D01*
X100116667Y-55906533D02*
X100116667Y-55811295D01*
X100116667Y-55811295D02*
X100164286Y-55716057D01*
X100164286Y-55716057D02*
X100211905Y-55668438D01*
X100211905Y-55668438D02*
X100307143Y-55620819D01*
X100307143Y-55620819D02*
X100545238Y-55620819D01*
X100545238Y-55620819D02*
X100688095Y-55668438D01*
X101021429Y-55620819D02*
X101259524Y-56620819D01*
X101259524Y-56620819D02*
X101450000Y-55906533D01*
X101450000Y-55906533D02*
X101640476Y-56620819D01*
X101640476Y-56620819D02*
X101878572Y-55620819D01*
X102164286Y-55620819D02*
X102783333Y-55620819D01*
X102783333Y-55620819D02*
X102450000Y-56001771D01*
X102450000Y-56001771D02*
X102592857Y-56001771D01*
X102592857Y-56001771D02*
X102688095Y-56049390D01*
X102688095Y-56049390D02*
X102735714Y-56097009D01*
X102735714Y-56097009D02*
X102783333Y-56192247D01*
X102783333Y-56192247D02*
X102783333Y-56430342D01*
X102783333Y-56430342D02*
X102735714Y-56525580D01*
X102735714Y-56525580D02*
X102688095Y-56573200D01*
X102688095Y-56573200D02*
X102592857Y-56620819D01*
X102592857Y-56620819D02*
X102307143Y-56620819D01*
X102307143Y-56620819D02*
X102211905Y-56573200D01*
X102211905Y-56573200D02*
X102164286Y-56525580D01*
D11*
X140947666Y-68176985D02*
X140947666Y-68896652D01*
X140947666Y-68896652D02*
X140990000Y-68981318D01*
X140990000Y-68981318D02*
X141032333Y-69023652D01*
X141032333Y-69023652D02*
X141117000Y-69065985D01*
X141117000Y-69065985D02*
X141286333Y-69065985D01*
X141286333Y-69065985D02*
X141371000Y-69023652D01*
X141371000Y-69023652D02*
X141413333Y-68981318D01*
X141413333Y-68981318D02*
X141455666Y-68896652D01*
X141455666Y-68896652D02*
X141455666Y-68176985D01*
X142344666Y-69065985D02*
X141836666Y-69065985D01*
X142090666Y-69065985D02*
X142090666Y-68176985D01*
X142090666Y-68176985D02*
X142005999Y-68303985D01*
X142005999Y-68303985D02*
X141921333Y-68388652D01*
X141921333Y-68388652D02*
X141836666Y-68430985D01*
D10*
X136863095Y-65027200D02*
X137005952Y-65074819D01*
X137005952Y-65074819D02*
X137244047Y-65074819D01*
X137244047Y-65074819D02*
X137339285Y-65027200D01*
X137339285Y-65027200D02*
X137386904Y-64979580D01*
X137386904Y-64979580D02*
X137434523Y-64884342D01*
X137434523Y-64884342D02*
X137434523Y-64789104D01*
X137434523Y-64789104D02*
X137386904Y-64693866D01*
X137386904Y-64693866D02*
X137339285Y-64646247D01*
X137339285Y-64646247D02*
X137244047Y-64598628D01*
X137244047Y-64598628D02*
X137053571Y-64551009D01*
X137053571Y-64551009D02*
X136958333Y-64503390D01*
X136958333Y-64503390D02*
X136910714Y-64455771D01*
X136910714Y-64455771D02*
X136863095Y-64360533D01*
X136863095Y-64360533D02*
X136863095Y-64265295D01*
X136863095Y-64265295D02*
X136910714Y-64170057D01*
X136910714Y-64170057D02*
X136958333Y-64122438D01*
X136958333Y-64122438D02*
X137053571Y-64074819D01*
X137053571Y-64074819D02*
X137291666Y-64074819D01*
X137291666Y-64074819D02*
X137434523Y-64122438D01*
X138244047Y-65027200D02*
X138148809Y-65074819D01*
X138148809Y-65074819D02*
X137958333Y-65074819D01*
X137958333Y-65074819D02*
X137863095Y-65027200D01*
X137863095Y-65027200D02*
X137815476Y-64931961D01*
X137815476Y-64931961D02*
X137815476Y-64551009D01*
X137815476Y-64551009D02*
X137863095Y-64455771D01*
X137863095Y-64455771D02*
X137958333Y-64408152D01*
X137958333Y-64408152D02*
X138148809Y-64408152D01*
X138148809Y-64408152D02*
X138244047Y-64455771D01*
X138244047Y-64455771D02*
X138291666Y-64551009D01*
X138291666Y-64551009D02*
X138291666Y-64646247D01*
X138291666Y-64646247D02*
X137815476Y-64741485D01*
X139101190Y-65027200D02*
X139005952Y-65074819D01*
X139005952Y-65074819D02*
X138815476Y-65074819D01*
X138815476Y-65074819D02*
X138720238Y-65027200D01*
X138720238Y-65027200D02*
X138672619Y-64931961D01*
X138672619Y-64931961D02*
X138672619Y-64551009D01*
X138672619Y-64551009D02*
X138720238Y-64455771D01*
X138720238Y-64455771D02*
X138815476Y-64408152D01*
X138815476Y-64408152D02*
X139005952Y-64408152D01*
X139005952Y-64408152D02*
X139101190Y-64455771D01*
X139101190Y-64455771D02*
X139148809Y-64551009D01*
X139148809Y-64551009D02*
X139148809Y-64646247D01*
X139148809Y-64646247D02*
X138672619Y-64741485D01*
X139958333Y-65027200D02*
X139863095Y-65074819D01*
X139863095Y-65074819D02*
X139672619Y-65074819D01*
X139672619Y-65074819D02*
X139577381Y-65027200D01*
X139577381Y-65027200D02*
X139529762Y-64931961D01*
X139529762Y-64931961D02*
X139529762Y-64551009D01*
X139529762Y-64551009D02*
X139577381Y-64455771D01*
X139577381Y-64455771D02*
X139672619Y-64408152D01*
X139672619Y-64408152D02*
X139863095Y-64408152D01*
X139863095Y-64408152D02*
X139958333Y-64455771D01*
X139958333Y-64455771D02*
X140005952Y-64551009D01*
X140005952Y-64551009D02*
X140005952Y-64646247D01*
X140005952Y-64646247D02*
X139529762Y-64741485D01*
X140863095Y-65074819D02*
X140863095Y-64074819D01*
X140863095Y-65027200D02*
X140767857Y-65074819D01*
X140767857Y-65074819D02*
X140577381Y-65074819D01*
X140577381Y-65074819D02*
X140482143Y-65027200D01*
X140482143Y-65027200D02*
X140434524Y-64979580D01*
X140434524Y-64979580D02*
X140386905Y-64884342D01*
X140386905Y-64884342D02*
X140386905Y-64598628D01*
X140386905Y-64598628D02*
X140434524Y-64503390D01*
X140434524Y-64503390D02*
X140482143Y-64455771D01*
X140482143Y-64455771D02*
X140577381Y-64408152D01*
X140577381Y-64408152D02*
X140767857Y-64408152D01*
X140767857Y-64408152D02*
X140863095Y-64455771D01*
X142053572Y-65027200D02*
X142196429Y-65074819D01*
X142196429Y-65074819D02*
X142434524Y-65074819D01*
X142434524Y-65074819D02*
X142529762Y-65027200D01*
X142529762Y-65027200D02*
X142577381Y-64979580D01*
X142577381Y-64979580D02*
X142625000Y-64884342D01*
X142625000Y-64884342D02*
X142625000Y-64789104D01*
X142625000Y-64789104D02*
X142577381Y-64693866D01*
X142577381Y-64693866D02*
X142529762Y-64646247D01*
X142529762Y-64646247D02*
X142434524Y-64598628D01*
X142434524Y-64598628D02*
X142244048Y-64551009D01*
X142244048Y-64551009D02*
X142148810Y-64503390D01*
X142148810Y-64503390D02*
X142101191Y-64455771D01*
X142101191Y-64455771D02*
X142053572Y-64360533D01*
X142053572Y-64360533D02*
X142053572Y-64265295D01*
X142053572Y-64265295D02*
X142101191Y-64170057D01*
X142101191Y-64170057D02*
X142148810Y-64122438D01*
X142148810Y-64122438D02*
X142244048Y-64074819D01*
X142244048Y-64074819D02*
X142482143Y-64074819D01*
X142482143Y-64074819D02*
X142625000Y-64122438D01*
X142910715Y-64408152D02*
X143291667Y-64408152D01*
X143053572Y-64074819D02*
X143053572Y-64931961D01*
X143053572Y-64931961D02*
X143101191Y-65027200D01*
X143101191Y-65027200D02*
X143196429Y-65074819D01*
X143196429Y-65074819D02*
X143291667Y-65074819D01*
X144053572Y-64408152D02*
X144053572Y-65074819D01*
X143625001Y-64408152D02*
X143625001Y-64931961D01*
X143625001Y-64931961D02*
X143672620Y-65027200D01*
X143672620Y-65027200D02*
X143767858Y-65074819D01*
X143767858Y-65074819D02*
X143910715Y-65074819D01*
X143910715Y-65074819D02*
X144005953Y-65027200D01*
X144005953Y-65027200D02*
X144053572Y-64979580D01*
X144958334Y-65074819D02*
X144958334Y-64074819D01*
X144958334Y-65027200D02*
X144863096Y-65074819D01*
X144863096Y-65074819D02*
X144672620Y-65074819D01*
X144672620Y-65074819D02*
X144577382Y-65027200D01*
X144577382Y-65027200D02*
X144529763Y-64979580D01*
X144529763Y-64979580D02*
X144482144Y-64884342D01*
X144482144Y-64884342D02*
X144482144Y-64598628D01*
X144482144Y-64598628D02*
X144529763Y-64503390D01*
X144529763Y-64503390D02*
X144577382Y-64455771D01*
X144577382Y-64455771D02*
X144672620Y-64408152D01*
X144672620Y-64408152D02*
X144863096Y-64408152D01*
X144863096Y-64408152D02*
X144958334Y-64455771D01*
X145434525Y-65074819D02*
X145434525Y-64408152D01*
X145434525Y-64074819D02*
X145386906Y-64122438D01*
X145386906Y-64122438D02*
X145434525Y-64170057D01*
X145434525Y-64170057D02*
X145482144Y-64122438D01*
X145482144Y-64122438D02*
X145434525Y-64074819D01*
X145434525Y-64074819D02*
X145434525Y-64170057D01*
X146053572Y-65074819D02*
X145958334Y-65027200D01*
X145958334Y-65027200D02*
X145910715Y-64979580D01*
X145910715Y-64979580D02*
X145863096Y-64884342D01*
X145863096Y-64884342D02*
X145863096Y-64598628D01*
X145863096Y-64598628D02*
X145910715Y-64503390D01*
X145910715Y-64503390D02*
X145958334Y-64455771D01*
X145958334Y-64455771D02*
X146053572Y-64408152D01*
X146053572Y-64408152D02*
X146196429Y-64408152D01*
X146196429Y-64408152D02*
X146291667Y-64455771D01*
X146291667Y-64455771D02*
X146339286Y-64503390D01*
X146339286Y-64503390D02*
X146386905Y-64598628D01*
X146386905Y-64598628D02*
X146386905Y-64884342D01*
X146386905Y-64884342D02*
X146339286Y-64979580D01*
X146339286Y-64979580D02*
X146291667Y-65027200D01*
X146291667Y-65027200D02*
X146196429Y-65074819D01*
X146196429Y-65074819D02*
X146053572Y-65074819D01*
X140101191Y-66074819D02*
X140767857Y-67074819D01*
X140767857Y-66074819D02*
X140101191Y-67074819D01*
X141148810Y-67074819D02*
X141148810Y-66074819D01*
X141577381Y-66789104D02*
X142053571Y-66789104D01*
X141482143Y-67074819D02*
X141815476Y-66074819D01*
X141815476Y-66074819D02*
X142148809Y-67074819D01*
X142672619Y-66074819D02*
X142863095Y-66074819D01*
X142863095Y-66074819D02*
X142958333Y-66122438D01*
X142958333Y-66122438D02*
X143053571Y-66217676D01*
X143053571Y-66217676D02*
X143101190Y-66408152D01*
X143101190Y-66408152D02*
X143101190Y-66741485D01*
X143101190Y-66741485D02*
X143053571Y-66931961D01*
X143053571Y-66931961D02*
X142958333Y-67027200D01*
X142958333Y-67027200D02*
X142863095Y-67074819D01*
X142863095Y-67074819D02*
X142672619Y-67074819D01*
X142672619Y-67074819D02*
X142577381Y-67027200D01*
X142577381Y-67027200D02*
X142482143Y-66931961D01*
X142482143Y-66931961D02*
X142434524Y-66741485D01*
X142434524Y-66741485D02*
X142434524Y-66408152D01*
X142434524Y-66408152D02*
X142482143Y-66217676D01*
X142482143Y-66217676D02*
X142577381Y-66122438D01*
X142577381Y-66122438D02*
X142672619Y-66074819D01*
X100126667Y-75613200D02*
X100269524Y-75660819D01*
X100269524Y-75660819D02*
X100507619Y-75660819D01*
X100507619Y-75660819D02*
X100602857Y-75613200D01*
X100602857Y-75613200D02*
X100650476Y-75565580D01*
X100650476Y-75565580D02*
X100698095Y-75470342D01*
X100698095Y-75470342D02*
X100698095Y-75375104D01*
X100698095Y-75375104D02*
X100650476Y-75279866D01*
X100650476Y-75279866D02*
X100602857Y-75232247D01*
X100602857Y-75232247D02*
X100507619Y-75184628D01*
X100507619Y-75184628D02*
X100317143Y-75137009D01*
X100317143Y-75137009D02*
X100221905Y-75089390D01*
X100221905Y-75089390D02*
X100174286Y-75041771D01*
X100174286Y-75041771D02*
X100126667Y-74946533D01*
X100126667Y-74946533D02*
X100126667Y-74851295D01*
X100126667Y-74851295D02*
X100174286Y-74756057D01*
X100174286Y-74756057D02*
X100221905Y-74708438D01*
X100221905Y-74708438D02*
X100317143Y-74660819D01*
X100317143Y-74660819D02*
X100555238Y-74660819D01*
X100555238Y-74660819D02*
X100698095Y-74708438D01*
X101031429Y-74660819D02*
X101269524Y-75660819D01*
X101269524Y-75660819D02*
X101460000Y-74946533D01*
X101460000Y-74946533D02*
X101650476Y-75660819D01*
X101650476Y-75660819D02*
X101888572Y-74660819D01*
X102698095Y-74994152D02*
X102698095Y-75660819D01*
X102460000Y-74613200D02*
X102221905Y-75327485D01*
X102221905Y-75327485D02*
X102840952Y-75327485D01*
X119146667Y-75613200D02*
X119289524Y-75660819D01*
X119289524Y-75660819D02*
X119527619Y-75660819D01*
X119527619Y-75660819D02*
X119622857Y-75613200D01*
X119622857Y-75613200D02*
X119670476Y-75565580D01*
X119670476Y-75565580D02*
X119718095Y-75470342D01*
X119718095Y-75470342D02*
X119718095Y-75375104D01*
X119718095Y-75375104D02*
X119670476Y-75279866D01*
X119670476Y-75279866D02*
X119622857Y-75232247D01*
X119622857Y-75232247D02*
X119527619Y-75184628D01*
X119527619Y-75184628D02*
X119337143Y-75137009D01*
X119337143Y-75137009D02*
X119241905Y-75089390D01*
X119241905Y-75089390D02*
X119194286Y-75041771D01*
X119194286Y-75041771D02*
X119146667Y-74946533D01*
X119146667Y-74946533D02*
X119146667Y-74851295D01*
X119146667Y-74851295D02*
X119194286Y-74756057D01*
X119194286Y-74756057D02*
X119241905Y-74708438D01*
X119241905Y-74708438D02*
X119337143Y-74660819D01*
X119337143Y-74660819D02*
X119575238Y-74660819D01*
X119575238Y-74660819D02*
X119718095Y-74708438D01*
X120051429Y-74660819D02*
X120289524Y-75660819D01*
X120289524Y-75660819D02*
X120480000Y-74946533D01*
X120480000Y-74946533D02*
X120670476Y-75660819D01*
X120670476Y-75660819D02*
X120908572Y-74660819D01*
X121241905Y-74756057D02*
X121289524Y-74708438D01*
X121289524Y-74708438D02*
X121384762Y-74660819D01*
X121384762Y-74660819D02*
X121622857Y-74660819D01*
X121622857Y-74660819D02*
X121718095Y-74708438D01*
X121718095Y-74708438D02*
X121765714Y-74756057D01*
X121765714Y-74756057D02*
X121813333Y-74851295D01*
X121813333Y-74851295D02*
X121813333Y-74946533D01*
X121813333Y-74946533D02*
X121765714Y-75089390D01*
X121765714Y-75089390D02*
X121194286Y-75660819D01*
X121194286Y-75660819D02*
X121813333Y-75660819D01*
%TO.C,SW5*%
D12*
X134075000Y-80707470D02*
X134675000Y-80707470D01*
X134375000Y-81007470D02*
X134075000Y-80707470D01*
X134675000Y-80707470D02*
X134375000Y-81007470D01*
X135775000Y-78907470D02*
X135775000Y-90707470D01*
X139875000Y-78907470D02*
X135775000Y-78907470D01*
X139875000Y-90707470D02*
X135775000Y-90707470D01*
X141375000Y-84807470D02*
X142375000Y-84807470D01*
X141875000Y-84307470D02*
X141875000Y-85307470D01*
X143875000Y-78907470D02*
X147975000Y-78907470D01*
X147975000Y-78907470D02*
X147975000Y-81307470D01*
X147975000Y-83507470D02*
X147975000Y-86107470D01*
X147975000Y-88307470D02*
X147975000Y-90707470D01*
X147975000Y-90707470D02*
X143875000Y-90707470D01*
X144875000Y-84807470D02*
G75*
G02*
X138875000Y-84807470I-3000000J0D01*
G01*
X138875000Y-84807470D02*
G75*
G02*
X144875000Y-84807470I3000000J0D01*
G01*
%TO.C,SW1*%
X113495000Y-57055000D02*
X127465000Y-57055000D01*
X113495000Y-71025000D02*
X113495000Y-57055000D01*
X127465000Y-57055000D02*
X127465000Y-71025000D01*
X127465000Y-71025000D02*
X113495000Y-71025000D01*
%TO.C,SW3*%
X94465000Y-57055000D02*
X108435000Y-57055000D01*
X94465000Y-71025000D02*
X94465000Y-57055000D01*
X108435000Y-57055000D02*
X108435000Y-71025000D01*
X108435000Y-71025000D02*
X94465000Y-71025000D01*
%TO.C,U1*%
D13*
X132725000Y-57620000D02*
X132725000Y-74620000D01*
X134725000Y-76620000D02*
X148525000Y-76620000D01*
X137125000Y-54195970D02*
X146125000Y-54195970D01*
X137125000Y-61549270D02*
X137125000Y-54195970D01*
X146125000Y-54195970D02*
X146125000Y-61549270D01*
X146125000Y-61549270D02*
X137125000Y-61549270D01*
X148525000Y-55620910D02*
X134725000Y-55620910D01*
X150525000Y-74620000D02*
X150525000Y-57620000D01*
D12*
X132725000Y-57620000D02*
G75*
G02*
X134725000Y-55620000I2044612J-44612D01*
G01*
X134725000Y-76620000D02*
G75*
G02*
X132725000Y-74620000I44857J2044857D01*
G01*
X148525000Y-55620000D02*
G75*
G02*
X150525000Y-57620000I-44610J-2044610D01*
G01*
X150525000Y-74620000D02*
G75*
G02*
X148525000Y-76620000I-2000000J0D01*
G01*
D14*
X130752000Y-57320000D02*
G75*
G02*
X130498000Y-57320000I-127000J0D01*
G01*
X130498000Y-57320000D02*
G75*
G02*
X130752000Y-57320000I127000J0D01*
G01*
D15*
X132737285Y-57558295D02*
X132740333Y-57509527D01*
X132744397Y-57460506D01*
X132737285Y-57558295D01*
X150512713Y-74690850D02*
X150509665Y-74739618D01*
X150505601Y-74788639D01*
X150500268Y-74837407D01*
X150493664Y-74886175D01*
X150486044Y-74934690D01*
X150477153Y-74982950D01*
X150467248Y-75030955D01*
X150514492Y-74641574D01*
X150512713Y-74690850D01*
%TO.C,SW4*%
D12*
X94475000Y-76095000D02*
X108445000Y-76095000D01*
X94475000Y-90065000D02*
X94475000Y-76095000D01*
X108445000Y-76095000D02*
X108445000Y-90065000D01*
X108445000Y-90065000D02*
X94475000Y-90065000D01*
%TO.C,SW2*%
X113495000Y-76095000D02*
X127465000Y-76095000D01*
X113495000Y-90065000D02*
X113495000Y-76095000D01*
X127465000Y-76095000D02*
X127465000Y-90065000D01*
X127465000Y-90065000D02*
X113495000Y-90065000D01*
%TD*%
M02*
