%TF.GenerationSoftware,KiCad,Pcbnew,10.0.0*%
%TF.CreationDate,2026-03-31T21:38:48+05:30*%
%TF.ProjectId,custommacropad,63757374-6f6d-46d6-9163-726f7061642e,rev?*%
%TF.SameCoordinates,Original*%
%TF.FileFunction,Copper,L2,Bot*%
%TF.FilePolarity,Positive*%
%FSLAX46Y46*%
G04 Gerber Fmt 4.6, Leading zero omitted, Abs format (unit mm)*
G04 Created by KiCad (PCBNEW 10.0.0) date 2026-03-31 21:38:48*
%MOMM*%
%LPD*%
G01*
G04 APERTURE LIST*
%TA.AperFunction,ComponentPad*%
%ADD10R,2.000000X2.000000*%
%TD*%
%TA.AperFunction,ComponentPad*%
%ADD11C,2.000000*%
%TD*%
%TA.AperFunction,ComponentPad*%
%ADD12R,3.200000X2.000000*%
%TD*%
%TA.AperFunction,ComponentPad*%
%ADD13C,2.200000*%
%TD*%
%TA.AperFunction,ComponentPad*%
%ADD14R,3.500000X1.700000*%
%TD*%
%TA.AperFunction,ComponentPad*%
%ADD15O,3.600000X1.700000*%
%TD*%
%TA.AperFunction,ComponentPad*%
%ADD16O,3.700000X1.700000*%
%TD*%
%TA.AperFunction,Conductor*%
%ADD17C,0.200000*%
%TD*%
G04 APERTURE END LIST*
D10*
%TO.P,SW5,A,A_A*%
%TO.N,Net-(U1-PA02_A0_D0)*%
X134375000Y-82307470D03*
D11*
%TO.P,SW5,B,B_B*%
%TO.N,Net-(U1-PA4_A1_D1)*%
X134375000Y-87307470D03*
%TO.P,SW5,C,C_C*%
%TO.N,GND*%
X134375000Y-84807470D03*
D12*
%TO.P,SW5,MP*%
%TO.N,N/C*%
X141875000Y-79207470D03*
X141875000Y-90407470D03*
D11*
%TO.P,SW5,S1,S1_S1*%
%TO.N,Net-(U1-PA10_A2_D2)*%
X148875000Y-87307470D03*
%TO.P,SW5,S2,S2_S2*%
%TO.N,GND*%
X148875000Y-82307470D03*
%TD*%
D13*
%TO.P,SW1,1,1_1*%
%TO.N,Net-(U1-PA6_A10_D10_MOSI)*%
X123020000Y-58960000D03*
%TO.P,SW1,2,2_2*%
%TO.N,GND*%
X116670000Y-61500000D03*
%TD*%
%TO.P,SW3,1,1_1*%
%TO.N,Net-(U1-PA7_A8_D8_SCK)*%
X103990000Y-58960000D03*
%TO.P,SW3,2,2_2*%
%TO.N,GND*%
X97640000Y-61500000D03*
%TD*%
D14*
%TO.P,U1,1,PA02_A0_D0_1*%
%TO.N,Net-(U1-PA02_A0_D0)*%
X133000000Y-58500000D03*
D15*
%TO.P,U1,2,PA4_A1_D1_2*%
%TO.N,Net-(U1-PA4_A1_D1)*%
X133000000Y-61040000D03*
%TO.P,U1,3,PA10_A2_D2_3*%
%TO.N,Net-(U1-PA10_A2_D2)*%
X133000000Y-63580000D03*
%TO.P,U1,4,PA11_A3_D3_4*%
%TO.N,unconnected-(U1-PA11_A3_D3-Pad4)*%
X133000000Y-66120000D03*
%TO.P,U1,5,PA8_A4_D4_SDA_5*%
%TO.N,unconnected-(U1-PA8_A4_D4_SDA-Pad5)*%
X133000000Y-68660000D03*
%TO.P,U1,6,PA9_A5_D5_SCL_6*%
%TO.N,unconnected-(U1-PA9_A5_D5_SCL-Pad6)*%
X133000000Y-71200000D03*
%TO.P,U1,7,PB08_A6_D6_TX_7*%
%TO.N,unconnected-(U1-PB08_A6_D6_TX-Pad7)*%
X133000000Y-73740000D03*
%TO.P,U1,8,PB09_A7_D7_RX_8*%
%TO.N,Net-(U1-PB09_A7_D7_RX)*%
X150250000Y-73740000D03*
%TO.P,U1,9,PA7_A8_D8_SCK_9*%
%TO.N,Net-(U1-PA7_A8_D8_SCK)*%
X150250000Y-71200000D03*
%TO.P,U1,10,PA5_A9_D9_MISO_10*%
%TO.N,Net-(U1-PA5_A9_D9_MISO)*%
X150250000Y-68660000D03*
D16*
%TO.P,U1,11,PA6_A10_D10_MOSI_11*%
%TO.N,Net-(U1-PA6_A10_D10_MOSI)*%
X150250000Y-66120000D03*
%TO.P,U1,12,3V3_12*%
%TO.N,unconnected-(U1-3V3-Pad12)*%
X150250000Y-63580000D03*
%TO.P,U1,13,GND_13*%
%TO.N,GND*%
X150250000Y-61040000D03*
%TO.P,U1,14,5V_14*%
%TO.N,+5V*%
X150250000Y-58500000D03*
%TD*%
D13*
%TO.P,SW4,1,1_1*%
%TO.N,Net-(U1-PB09_A7_D7_RX)*%
X104000000Y-78000000D03*
%TO.P,SW4,2,2_2*%
%TO.N,GND*%
X97650000Y-80540000D03*
%TD*%
%TO.P,SW2,1,1_1*%
%TO.N,Net-(U1-PA5_A9_D9_MISO)*%
X123020000Y-78000000D03*
%TO.P,SW2,2,2_2*%
%TO.N,GND*%
X116670000Y-80540000D03*
%TD*%
%TO.N,Net-(U1-PA02_A0_D0)*%
D17*
X134000000Y-58500000D02*
X135675000Y-60175000D01*
X135675000Y-81007470D02*
X134375000Y-82307470D01*
X135675000Y-60175000D02*
X135675000Y-81007470D01*
%TO.N,Net-(U1-PA4_A1_D1)*%
X133075000Y-76241346D02*
X133075000Y-86007470D01*
X134000000Y-61040000D02*
X135100000Y-62140000D01*
X135100000Y-74216346D02*
X133075000Y-76241346D01*
X135100000Y-62140000D02*
X135100000Y-74216346D01*
X133075000Y-86007470D02*
X134375000Y-87307470D01*
X134000000Y-61040000D02*
X132340000Y-61040000D01*
%TO.N,Net-(U1-PA10_A2_D2)*%
X130900000Y-85670948D02*
X133836522Y-88607470D01*
X132963654Y-63580000D02*
X130900000Y-65643654D01*
X147575000Y-88607470D02*
X148875000Y-87307470D01*
X133836522Y-88607470D02*
X147575000Y-88607470D01*
X134000000Y-63580000D02*
X132963654Y-63580000D01*
X130900000Y-65643654D02*
X130900000Y-85670948D01*
%TO.N,Net-(U1-PA6_A10_D10_MOSI)*%
X124420000Y-78579899D02*
X124420000Y-64597056D01*
X122440101Y-79400000D02*
X123599899Y-79400000D01*
X121620000Y-77420101D02*
X121620000Y-78579899D01*
X139680000Y-56550000D02*
X103854415Y-56550000D01*
X124420000Y-64597056D02*
X123020000Y-63197056D01*
X121620000Y-78579899D02*
X122440101Y-79400000D01*
X103244416Y-60760000D02*
X104959899Y-60760000D01*
X103854415Y-56550000D02*
X102190000Y-58214416D01*
X102190000Y-58214416D02*
X102190000Y-59705585D01*
X123599899Y-79400000D02*
X124420000Y-78579899D01*
X102190000Y-59705585D02*
X103244416Y-60760000D01*
X104959899Y-60760000D02*
X121620000Y-77420101D01*
X149250000Y-66120000D02*
X139680000Y-56550000D01*
X123020000Y-63197056D02*
X123020000Y-58960000D01*
%TO.N,Net-(U1-PA7_A8_D8_SCK)*%
X149250000Y-71200000D02*
X135400000Y-57350000D01*
X105600000Y-57350000D02*
X103990000Y-58960000D01*
X135400000Y-57350000D02*
X105600000Y-57350000D01*
%TO.N,Net-(U1-PB09_A7_D7_RX)*%
X150175000Y-87845948D02*
X148913478Y-89107470D01*
X149250000Y-73740000D02*
X150175000Y-74665000D01*
X115107470Y-89107470D02*
X104000000Y-78000000D01*
X150175000Y-74665000D02*
X150175000Y-87845948D01*
X148913478Y-89107470D02*
X115107470Y-89107470D01*
%TO.N,Net-(U1-PA5_A9_D9_MISO)*%
X102590000Y-58380101D02*
X102590000Y-59539899D01*
X102590000Y-59539899D02*
X103410101Y-60360000D01*
X103410101Y-60360000D02*
X105380000Y-60360000D01*
X104020101Y-56950000D02*
X102590000Y-58380101D01*
X149250000Y-68660000D02*
X137540000Y-56950000D01*
X105380000Y-60360000D02*
X123020000Y-78000000D01*
X137540000Y-56950000D02*
X104020101Y-56950000D01*
%TD*%
M02*
